<svg xmlns="http://www.w3.org/2000/svg" version="1.1" xmlns:xlink="http://www.w3.org/1999/xlink" width="388.49556565200754" height="200" viewBox="-7.880000114440918 30.559999465942383 60.2400016784668 26.160001754760742">
    <path fill="currentColor" d="M-5.84 55.68L-5.84 55.68Q-4.88 55.68-2.64 53.44Q-0.40 51.20 1.64 48.02Q3.68 44.84 3.96 42.64L3.96 42.64Q-0.16 45.32-3.22 48.70Q-6.28 52.08-6.28 55.08L-6.28 55.08Q-6.28 55.68-5.84 55.68ZM7.14 39.98Q8.20 39.48 8.52 39.48Q8.84 39.48 8.84 39.76Q8.84 40.04 8.36 40.24L8.36 40.24Q7.04 40.72 5.28 41.84L5.28 41.84L5.28 42.04Q5.28 44.44 2.80 48.04Q0.32 51.64-2.58 54.18Q-5.48 56.72-6.84 56.72L-6.84 56.72Q-7.88 56.72-7.88 55.56L-7.88 55.56Q-7.88 53.88-6.74 51.90Q-5.60 49.92-3.76 48.08L-3.76 48.08Q-0.16 44.36 4.04 41.72L4.04 41.72Q3.84 39.64 1.36 39.48L1.36 39.48Q0.76 39.48 0.76 39.12L0.76 39.12Q0.76 39 1.32 38.66Q1.88 38.32 3.12 37.56Q4.36 36.80 6.20 35.22Q8.04 33.64 8.04 32.72L8.04 32.72Q8.04 32.28 7.64 32.28L7.64 32.28Q6.72 32.28 4.12 34.36L4.12 34.36L2.88 35.36L2.72 34.76Q3.20 34.40 3.80 33.92L3.80 33.92Q7.40 30.96 9.16 30.96L9.16 30.96Q10.24 30.96 10.24 32.12L10.24 32.12Q10.24 34.48 2.96 38.52L2.96 38.52Q2.64 38.68 2.64 38.84Q2.64 39 2.72 39L2.72 39Q4.72 39.52 5.16 41.04L5.16 41.04Q6.08 40.48 7.14 39.98ZM18.04 35.20L18.04 35.20Q17.80 35.20 17.80 35.02Q17.80 34.84 18.08 34.60L18.08 34.60Q19.40 33.52 19.40 32.64L19.40 32.64Q19.40 32.08 18.40 32L18.40 32Q16.60 32.04 14.10 34.60Q11.60 37.16 11.60 38.44L11.60 38.44Q11.60 38.88 12.10 38.88Q12.60 38.88 13.44 38.20L13.44 38.20Q14.20 37.72 16.28 35.80L16.28 35.80Q16.76 35.32 17.20 35.32L17.20 35.32Q17.76 35.32 17.76 35.84L17.76 35.84Q17.76 36.04 17.64 36.16Q17.52 36.28 17.20 36.66Q16.88 37.04 16.64 37.36L16.64 37.36Q15.92 38.40 15.92 38.72L15.92 38.72Q15.92 39.52 16.56 39.52L16.56 39.52Q17.40 39.52 19.72 37.98Q22.04 36.44 23.96 34.88L23.96 34.88L25.88 33.36Q26.16 33.16 26.40 33.16Q26.64 33.16 26.64 33.44L26.64 33.44L26.64 33.52Q23.56 36.12 20.14 38.40Q16.72 40.68 15.64 40.68L15.64 40.68Q14.36 40.68 14.36 39.32L14.36 39.32Q14.36 39 14.48 38.72Q14.60 38.44 14.60 38.32Q14.60 38.20 14.52 38.16L14.52 38.16Q14.40 38.16 12.98 39.24Q11.56 40.32 10.50 40.32Q9.44 40.32 9.44 39.20Q9.44 38.08 10.94 36.18Q12.44 34.28 14.96 32.72Q17.48 31.16 19.88 31.16L19.88 31.16Q20.44 31.16 20.82 31.44Q21.20 31.72 21.20 32.30Q21.20 32.88 20.04 34.04Q18.88 35.20 18.04 35.20ZM42.12 33.36L42.12 33.48Q33.68 40.52 31.68 40.52L31.68 40.52Q30.52 40.52 30.52 39.56Q30.52 38.60 31.38 37.28Q32.24 35.96 33.10 34.94Q33.96 33.92 33.96 33.72Q33.96 33.52 33.84 33.52L33.84 33.52Q30.12 36 29.42 36.56Q28.72 37.12 27.14 38.40Q25.56 39.68 25.08 40Q24.60 40.32 24.04 40.32L24.04 40.32Q23.48 40.32 23.48 39.84L23.48 39.84Q23.48 39.28 25.72 36.32L25.72 36.32Q27.88 33.36 27.88 33L27.88 33Q27.88 32.92 27.74 32.92Q27.60 32.92 24.28 35.36L24.28 35.36L24.12 34.76Q26.96 32.48 27.96 31.84Q28.96 31.20 29.58 31.20Q30.20 31.20 30.20 31.80L30.20 31.80Q30.20 32.20 27.94 35.06Q25.68 37.92 25.68 38.14Q25.68 38.36 25.82 38.36Q25.96 38.36 30.38 35.14Q34.80 31.92 35.76 31.92L35.76 31.92Q36.04 31.92 36.30 32.14Q36.56 32.36 36.56 32.56L36.56 32.56Q36.56 33.04 34.44 35.74Q32.32 38.44 32.32 38.80Q32.32 39.16 32.82 39.16Q33.32 39.16 34.96 38.08L34.96 38.08Q37.96 36.12 40.48 34.04L40.48 34.04L41.36 33.32Q41.64 33.12 41.88 33.12Q42.12 33.12 42.12 33.36L42.12 33.36ZM50.60 34.20L51.60 33.36Q51.88 33.16 52.12 33.16Q52.36 33.16 52.36 33.44L52.36 33.44L52.36 33.52Q48.20 36.96 45.44 38.68Q42.68 40.40 40.44 40.40L40.44 40.40Q38.64 40.40 38.64 38.64L38.64 38.64Q38.64 36.04 41.28 33.30Q43.92 30.56 45.72 30.56L45.72 30.56Q46.72 30.56 46.72 31.68L46.72 31.68Q46.52 33.88 40.40 37.60L40.40 37.60L40.40 38Q40.40 39.32 41.78 39.32Q43.16 39.32 44.76 38.40L44.76 38.40Q47.88 36.56 50.60 34.20L50.60 34.20ZM44.68 31.80L44.68 31.80Q43.80 31.80 42.42 33.28Q41.04 34.76 40.56 36.64L40.56 36.64Q42.48 35.48 43.80 34.18Q45.12 32.88 45.12 32.34Q45.12 31.80 44.68 31.80Z"></path>
</svg>